<svg fill="#FAB141" xmlns="http://www.w3.org/2000/svg"  viewBox="0 0 64 64" width="80px" height="80px"><path d="M 18.041016 6 C 16.066016 6 15.033203 7 15.033203 9 L 15.033203 28.160156 C 9.9261996 29.024809 6.0332031 33.583601 6.0332031 39 L 6.0332031 41 L 10.033203 41 L 10.033203 39 C 10.033203 35.718719 12.159584 33.03458 15.033203 32.244141 L 15.033203 49 C 15.033203 51 16.066203 52 18.033203 52 L 23.033203 52 L 23.033203 57 L 23.033203 59 L 27.033203 59 L 27.033203 57 L 27.033203 52 L 38.033203 52 L 38.033203 57 L 38.033203 59 L 42.033203 59 L 42.033203 57 L 42.033203 52 L 47.005859 52 C 48.953859 52 50.033203 51 50.033203 49 L 50.033203 32.78125 C 55.134971 31.766944 59.033203 27.327999 59.033203 22 L 59.033203 20 L 55.033203 20 L 55.033203 22 C 55.033203 25.120539 52.956581 27.763283 50.033203 28.666016 L 50.033203 9 C 50.033203 7 49.032859 6 47.005859 6 L 18.041016 6 z M 22.033203 11 L 43.033203 11 C 44.033203 11 45.033203 12 45.033203 13 L 45.033203 24 C 45.033203 25.249 44.373641 26 43.056641 26 L 22.033203 26 C 21.033203 26 20.033203 25 20.033203 24 L 20.033203 13 C 20.033203 12 21.033203 11 22.033203 11 z M 25.533203 15 A 1.5 1.5 0 0 0 25.533203 18 A 1.5 1.5 0 0 0 25.533203 15 z M 39.533203 15 A 1.5 1.5 0 0 0 39.533203 18 A 1.5 1.5 0 0 0 39.533203 15 z M 30.033203 19 C 30.033203 20.658 31.152203 22 32.533203 22 C 33.914203 22 35.033203 20.658 35.033203 19 L 30.033203 19 z M 20.033203 30 L 35.033203 30 L 35.033203 33 L 20.033203 33 L 20.033203 32 L 20.033203 30 z M 41.533203 30 C 42.361203 30 43.033203 30.672 43.033203 31.5 C 43.033203 32.328 42.361203 33 41.533203 33 C 40.705203 33 40.033203 32.328 40.033203 31.5 C 40.033203 30.672 40.705203 30 41.533203 30 z M 44.533203 35 C 45.361203 35 46.033203 35.672 46.033203 36.5 C 46.033203 37.328 45.361203 38 44.533203 38 C 43.705203 38 43.033203 37.328 43.033203 36.5 C 43.033203 35.672 43.705203 35 44.533203 35 z M 22.033203 36 L 25.033203 36 L 25.033203 39 L 28.033203 39 L 28.033203 42 L 25.033203 42 L 25.033203 45 L 22.033203 45 L 22.033203 42 L 19.033203 42 L 19.033203 39 L 22.033203 39 L 22.033203 36 z M 39.533203 41 C 41.465203 41 43.033203 42.568 43.033203 44.5 C 43.033203 46.432 41.465203 48 39.533203 48 C 37.601203 48 36.033203 46.432 36.033203 44.5 C 36.033203 42.568 37.601203 41 39.533203 41 z"/></svg>